<svg width="20" height="20" viewBox="0 0 20 20" fill="none" xmlns="http://www.w3.org/2000/svg">
<path d="M10.0001 0C12.7605 0 15.2618 1.12013 17.0726 2.92743C18.8799 4.73816 20 7.23964 20 9.99992C20 12.7605 18.8797 15.2617 17.0726 17.0724C15.262 18.88 12.7605 20 10.0001 20C7.23964 20 4.73816 18.88 2.92743 17.0726C1.12013 15.2618 0 12.7605 0 9.99992C0 7.23964 1.12013 4.73816 2.92743 2.92743C4.73832 1.12013 7.23964 0 10.0001 0ZM11.9552 6.37245C12.4028 5.91802 13.1305 5.9159 13.5805 6.36822C14.0304 6.82004 14.0322 7.55507 13.5849 8.00934L11.6212 10.0009L13.5869 11.9947C14.0309 12.4456 14.0245 13.1757 13.5737 13.6258C13.1225 14.076 12.3971 14.0747 11.9535 13.6238L10.0009 11.6441L8.04499 13.6279C7.59739 14.0825 6.86985 14.0844 6.41981 13.6319C5.9701 13.1803 5.96799 12.4453 6.41558 11.991L8.37897 9.99927L6.41314 8.00544C5.96945 7.55475 5.97547 6.82444 6.42649 6.37424C6.87766 5.9242 7.60309 5.92534 8.04662 6.37635L9.99927 8.35619L11.9552 6.37245ZM15.7715 4.22855C14.2947 2.75181 12.2543 1.83856 10.0001 1.83856C7.74567 1.83856 5.70529 2.75181 4.22855 4.22871C2.75181 5.70545 1.83856 7.74583 1.83856 10.0001C1.83856 12.2543 2.75181 14.2949 4.22855 15.7715C5.70529 17.2484 7.74567 18.1618 10.0001 18.1618C12.2543 18.1618 14.2947 17.2485 15.7715 15.7715C17.2482 14.2949 18.1614 12.2543 18.1614 10.0001C18.1614 7.74583 17.2484 5.70545 15.7715 4.22855Z" fill="#FF4141"/>
</svg>
