<svg width="15" height="18" viewBox="0 0 15 18" fill="none" xmlns="http://www.w3.org/2000/svg">
<path d="M14.0882 13.9538L14.4176 14.4C14.4635 14.4622 14.4915 14.5361 14.4983 14.6136C14.5052 14.691 14.4907 14.7688 14.4565 14.8384C14.4223 14.9079 14.3698 14.9664 14.3047 15.0072C14.2397 15.0481 14.1647 15.0698 14.0882 15.0698H0.911765C0.835295 15.0698 0.760336 15.0481 0.695287 15.0072C0.630238 14.9664 0.57767 14.9079 0.543471 14.8384C0.509273 14.7688 0.494797 14.691 0.501664 14.6136C0.508531 14.5361 0.536471 14.4622 0.582353 14.4L0.911765 13.9538V6.69767C0.911765 4.92134 1.60588 3.21776 2.84141 1.9617C4.07695 0.705646 5.75269 0 7.5 0C9.24731 0 10.9231 0.705646 12.1586 1.9617C13.3941 3.21776 14.0882 4.92134 14.0882 6.69767V13.9538ZM5.44118 15.907H9.55882C9.55882 16.4621 9.34191 16.9944 8.95581 17.387C8.5697 17.7795 8.04603 18 7.5 18C6.95397 18 6.4303 17.7795 6.04419 17.387C5.65809 16.9944 5.44118 16.4621 5.44118 15.907Z" fill="black"/>
</svg>
