<svg width="16" height="16" viewBox="0 0 16 16" fill="none" xmlns="http://www.w3.org/2000/svg">
<path d="M8.88889 7.64444L11.1111 9.86667C11.2741 10.0296 11.3556 10.237 11.3556 10.4889C11.3556 10.7407 11.2741 10.9481 11.1111 11.1111C10.9481 11.2741 10.7407 11.3556 10.4889 11.3556C10.237 11.3556 10.0296 11.2741 9.86667 11.1111L7.37778 8.62222C7.28889 8.53333 7.22222 8.43319 7.17778 8.32178C7.13333 8.21096 7.11111 8.0963 7.11111 7.97778V4.44444C7.11111 4.19259 7.19644 3.98133 7.36711 3.81067C7.53719 3.64059 7.74815 3.55556 8 3.55556C8.25185 3.55556 8.46311 3.64059 8.63378 3.81067C8.80385 3.98133 8.88889 4.19259 8.88889 4.44444V7.64444ZM8 16C6.88889 16 5.8483 15.789 4.87822 15.3671C3.90756 14.9446 3.06311 14.3739 2.34489 13.6551C1.62607 12.9369 1.05541 12.0924 0.632889 11.1218C0.210963 10.1517 0 9.11111 0 8C0 6.88889 0.210963 5.848 0.632889 4.87733C1.05541 3.90726 1.62607 3.06281 2.34489 2.344C3.06311 1.62578 3.90756 1.05541 4.87822 0.632889C5.8483 0.210963 6.88889 0 8 0C9.21481 0 10.3668 0.259259 11.456 0.777778C12.5446 1.2963 13.4667 2.02963 14.2222 2.97778V1.77778C14.2222 1.52593 14.3076 1.31467 14.4782 1.144C14.6483 0.973926 14.8593 0.888889 15.1111 0.888889C15.363 0.888889 15.5739 0.973926 15.744 1.144C15.9147 1.31467 16 1.52593 16 1.77778V5.33333C16 5.58519 15.9147 5.79615 15.744 5.96622C15.5739 6.13689 15.363 6.22222 15.1111 6.22222H11.5556C11.3037 6.22222 11.0927 6.13689 10.9227 5.96622C10.752 5.79615 10.6667 5.58519 10.6667 5.33333C10.6667 5.08148 10.752 4.87022 10.9227 4.69956C11.0927 4.52948 11.3037 4.44444 11.5556 4.44444H13.1111C12.5037 3.61481 11.7556 2.96296 10.8667 2.48889C9.97778 2.01481 9.02222 1.77778 8 1.77778C6.26667 1.77778 4.79644 2.38133 3.58933 3.58844C2.38163 4.79615 1.77778 6.26667 1.77778 8C1.77778 9.73333 2.38163 11.2036 3.58933 12.4107C4.79644 13.6184 6.26667 14.2222 8 14.2222C9.36296 14.2222 10.5964 13.8222 11.7004 13.0222C12.8039 12.2222 13.5481 11.1704 13.9333 9.86667C14.0074 9.61482 14.1446 9.40356 14.3449 9.23289C14.5446 9.06281 14.7704 9.00741 15.0222 9.06667C15.2889 9.12593 15.485 9.27407 15.6107 9.51111C15.7369 9.74815 15.763 10 15.6889 10.2667C15.2 11.9704 14.2444 13.3517 12.8222 14.4107C11.4 15.4702 9.79259 16 8 16Z" fill="black"/>
</svg>
