<svg width="20" height="20" viewBox="0 0 20 20" fill="none" xmlns="http://www.w3.org/2000/svg">
<path d="M5.59705 11.0651C5.5505 11.015 5.50883 10.9613 5.47303 10.9054C5.43706 10.8493 5.40564 10.7892 5.37976 10.7269C5.29334 10.521 5.2699 10.2987 5.30636 10.0866C5.34282 9.87598 5.43852 9.67464 5.59022 9.50912L5.64555 9.45215C6.01877 9.09652 6.58485 9.03027 7.02887 9.29736C7.09234 9.33529 7.15289 9.38037 7.20937 9.43197L7.2149 9.43701C7.5292 9.73844 8.06094 10.2314 8.41006 10.5422L8.70971 10.8109L12.3771 6.96403C12.4286 6.91081 12.4855 6.86312 12.5455 6.82145C12.607 6.77897 12.6717 6.743 12.7384 6.71387C12.8058 6.68441 12.8771 6.6613 12.95 6.64535C13.0227 6.62923 13.0969 6.62012 13.1707 6.61849H13.1749C13.2483 6.61768 13.3203 6.62288 13.3932 6.63525C13.4643 6.6473 13.5358 6.66667 13.6101 6.69531C13.6787 6.72152 13.7444 6.7544 13.8066 6.79362C13.866 6.83122 13.9239 6.87598 13.9785 6.92741L14.0048 6.95133C14.0563 7.00228 14.1027 7.05762 14.1432 7.11637C14.1848 7.17643 14.2205 7.24105 14.2493 7.30811C14.2791 7.37549 14.3022 7.44678 14.3183 7.51953C14.3346 7.59098 14.3434 7.6652 14.3452 7.74089V7.77832C14.3445 7.84326 14.3383 7.90918 14.3266 7.97428C14.3138 8.04508 14.2944 8.11475 14.2687 8.18115C14.2426 8.24919 14.2093 8.31543 14.1699 8.37809C14.1311 8.43945 14.0856 8.49837 14.0345 8.55225L9.60425 13.2007C9.55216 13.2563 9.49633 13.3052 9.4379 13.3468C9.37784 13.3898 9.31306 13.4268 9.24536 13.4577C9.17748 13.4883 9.10684 13.5125 9.03572 13.5293C8.96492 13.5462 8.89102 13.5563 8.81599 13.5597L8.79564 13.5602C8.7268 13.5617 8.65893 13.5576 8.59366 13.5475L8.57706 13.5443C8.50951 13.5329 8.44375 13.516 8.38093 13.4938C8.31241 13.4694 8.24535 13.438 8.18138 13.4002L8.17113 13.3937C8.11074 13.3573 8.05443 13.3161 8.00316 13.271L7.9929 13.2612C7.73574 13.0226 7.45628 12.7798 7.17372 12.5343C6.6843 12.109 6.00542 11.4956 5.59852 11.0662L5.59705 11.0651ZM10.0001 0C12.7605 0 15.2618 1.12028 17.0726 2.92757C18.8799 4.73828 20 7.23958 20 10C20 12.7606 18.8797 15.2619 17.0726 17.0726C15.262 18.8799 12.7605 20 10.0001 20C7.23948 20 4.73816 18.8799 2.92743 17.0726C1.12013 15.2619 0 12.7604 0 9.99984C0 7.23958 1.12013 4.73828 2.92743 2.92757C4.73832 1.12028 7.23948 0 10.0001 0ZM15.7715 4.22868C14.2947 2.75179 12.2543 1.83854 10.0001 1.83854C7.74567 1.83854 5.70529 2.75179 4.22855 4.22868C2.75181 5.7054 1.83856 7.74577 1.83856 9.99984C1.83856 12.2542 2.75181 14.2946 4.22855 15.7713C5.70529 17.248 7.74567 18.1615 10.0001 18.1615C12.2543 18.1615 14.2947 17.2482 15.7715 15.7713C17.2482 14.2944 18.1614 12.2542 18.1614 9.99984C18.1614 7.74577 17.2484 5.7054 15.7715 4.22868Z" fill="#6BBE66"/>
</svg>
