<svg width="25" height="25" viewBox="0 0 25 25" fill="none" xmlns="http://www.w3.org/2000/svg">
<path fill-rule="evenodd" clip-rule="evenodd" d="M17.9392 16.2169L24.5 22.7777L22.7777 24.5L16.2169 17.9392C14.5672 19.2217 12.4941 19.9854 10.2427 19.9854C4.86195 19.9854 0.5 15.6234 0.5 10.2427C0.5 4.86195 4.86195 0.5 10.2427 0.5C15.6234 0.5 19.9854 4.86195 19.9854 10.2427C19.9854 12.4941 19.2217 14.5672 17.9392 16.2169V16.2169ZM10.2427 17.5497C14.2782 17.5497 17.5497 14.2782 17.5497 10.2427C17.5497 6.20713 14.2782 2.93567 10.2427 2.93567C6.20713 2.93567 2.93567 6.20713 2.93567 10.2427C2.93567 14.2782 6.20713 17.5497 10.2427 17.5497Z" fill="black"/>
</svg>
