<svg width="8" height="32" viewBox="0 0 8 32" fill="none" xmlns="http://www.w3.org/2000/svg">
<path d="M4 7C5.65685 7 7 5.65685 7 4C7 2.34315 5.65685 1 4 1C2.34315 1 1 2.34315 1 4C1 5.65685 2.34315 7 4 7Z" stroke="black" stroke-width="2" stroke-linecap="round" stroke-linejoin="round"/>
<path d="M4 19C5.65685 19 7 17.6569 7 16C7 14.3431 5.65685 13 4 13C2.34315 13 1 14.3431 1 16C1 17.6569 2.34315 19 4 19Z" stroke="black" stroke-width="2" stroke-linecap="round" stroke-linejoin="round"/>
<path d="M4 31C5.65685 31 7 29.6569 7 28C7 26.3431 5.65685 25 4 25C2.34315 25 1 26.3431 1 28C1 29.6569 2.34315 31 4 31Z" stroke="black" stroke-width="2" stroke-linecap="round" stroke-linejoin="round"/>
</svg>
